# xmcd
#
# Track frame offsets:
#	150
#	5545
#	21200
#	31632
#	52161
#	66268
#	82666
#	89284
#	109523
#	128762
#	143908
#	171219
#	179969
#	195181
#
# Disc length: 2664 seconds
#
# Revision: 0
# Processed by: cddbd v1.5.2PL0 Copyright (c) Steve Scherf et al.
# Submitted via: audiograbber 1.82.02
#
DISCID=b10a660e
DTITLE=D-Ferg - I'm Say'en Dough
DYEAR=2008
DGENRE=Hip-Hop
TTITLE0=Intro
TTITLE1=Keep'en It Lovely
TTITLE2=Mommy Say She Wanna Rock It (Skit)
TTITLE3=Mommy Say She Wanna Rock It
TTITLE4=Wrist Watch
TTITLE5=Mak'en Moves, Bust'en Grooves
TTITLE6=Tryna Work It Out (Skit)
TTITLE7=Tryna Work It Out
TTITLE8=DMI Anthem
TTITLE9=So Pretty
TTITLE10=Call'en Me
TTITLE11=Can My Cousin D.F. Spend The Night (Skit)
TTITLE12=Can My Cousin D.F. Spend The Night
TTITLE13=Outro
EXTD=
EXTT0=
EXTT1=
EXTT2=
EXTT3=
EXTT4=
EXTT5=
EXTT6=
EXTT7=
EXTT8=
EXTT9=
EXTT10=
EXTT11=
EXTT12=
EXTT13=
PLAYORDER=
